<svg role="img" viewBox="0 0 100 100" xmlns="http://www.w3.org/2000/svg" id="Sfml--Streamline-Simple-Icons" height="100" width="100">
  <desc>
    Sfml Streamline Icon: https://streamlinehq.com
  </desc>
  <title>SFML</title>
  <path d="M50.77916666666667 1.3900000000000001C46.31 1.3 41.156666666666666 3.5958333333333337 33.16125 9.3375L13.175 23.857499999999998C1.05 32.66708333333333 -3.4958333333333336 35.53000000000001 2.8820833333333336 55.53666666666667l7.634166666666667 23.495833333333337c4.63125 14.253333333333334 5.949166666666667 19.46291666666667 26.947916666666668 19.579583333333332H62.16666666666667c14.987083333333334 0 20.35 0.35416666666666674 26.94916666666667 -19.579583333333332l7.6329166666666675 -23.495833333333337c4.63125 -14.254166666666666 6.626250000000001 -19.24166666666667 -10.292916666666667 -31.679166666666667L66.47083333333333 9.3375h-0.0016666666666666668C60.02875 4.6575 55.844166666666666 1.4916666666666667 50.77916666666667 1.3900000000000001zm-0.6766666666666666 7.84875c0.27166666666666667 0.00625 0.5429166666666667 0.02 0.8137500000000001 0.04166666666666667 4.493333333333334 0.34625 6.996250000000001 2.66 9.750416666666668 4.660833333333334l0.08041666666666668 0.08041666666666668 -8.866666666666667 34.035000000000004h-3.8570833333333336L39.18333333333334 14.021666666666668c0.02791666666666667 -0.025 0.04916666666666667 -0.05708333333333334 0.08 -0.08041666666666668 3.225416666666667 -2.476666666666667 6.352083333333334 -4.461666666666667 10.045416666666666 -4.6875l0.7937500000000001 -0.015000000000000001zM67.2 18.704166666666666h0.0033333333333333335l0.37333333333333335 0.2679166666666667 16.154583333333335 11.7325c3.83625 2.6333333333333337 6.99 5.324166666666668 8.034166666666668 9.643333333333334 1.0591666666666666 4.380833333333333 -0.3945833333333334 7.4775 -1.4466666666666668 10.715000000000002l-8.784166666666668 27.108333333333338c-1.3191666666666668 4.461666666666667 -2.9125 8.280416666666667 -6.6970833333333335 10.607916666666668 -3.83875 2.3608333333333333 -7.23 1.9554166666666668 -10.634583333333333 1.9554166666666668H35.7c-4.654166666666667 0.125 -8.776666666666667 -0.17208333333333337 -12.16125 -3.0537500000000004 -3.431666666666667 -2.921666666666667 -4.091666666666667 -6.271666666666667 -5.1433333333333335 -9.509583333333335l-8.812916666666668 -27.108333333333338c-1.5604166666666668 -4.393750000000001 -2.5270833333333336 -8.420833333333334 -0.8304166666666667 -12.53625 1.7179166666666668 -4.166666666666667 4.692500000000001 -5.820833333333334 7.446666666666667 -7.8220833333333335l16.15291666666667 -11.7325 0.3479166666666667 -0.24125000000000002 3.4825000000000004 13.366666666666669 -0.8837500000000001 0.6429166666666667 -11.545833333333334 8.3575c-2.345 1.7041666666666666 -2.7791666666666672 2.1216666666666666 -2.972916666666667 2.2770833333333336 0.05 0.24916666666666668 0.15125 1.1879166666666667 0.9912500000000001 3.5358333333333336l8.86625 27.269166666666667c0.8283333333333334 2.80125 1.1475 3.3475 1.2325000000000002 3.5625 0.27166666666666667 0.035 1.1900000000000002 0.20625000000000002 3.642916666666667 0.13416666666666668h28.688750000000002c2.622916666666667 0 3.443333333333334 -0.0725 3.7487500000000007 -0.08041666666666668 0.11 -0.23708333333333334 0.5887500000000001 -1.05 1.2858333333333334 -3.42875l8.867083333333333 -27.295833333333334c0.8083333333333335 -2.489166666666667 1.0016666666666667 -3.3500000000000005 1.07125 -3.5895833333333336 -0.2 -0.18791666666666668 -0.8429166666666668 -0.8954166666666667 -2.86625 -2.276666666666667l-11.679166666666667 -8.465000000000002 -0.9108333333333334 -0.6695833333333334 3.4825000000000004 -13.366666666666669h-0.0004166666666666667z" fill="#2e2e2e" stroke-width="4.1667"></path>
</svg>